Coordinates
version=1
nRows=10
nColumns=34
inDegrees=yes

Units are S.I. units (second, meters, Newtons, ...)
If the header above contains a line with 'inDegrees', this indicates whether rotational values are in degrees (yes) or radians (no).

endheader
time	pelvis_tilt	pelvis_list	pelvis_rotation	pelvis_tx	pelvis_ty	pelvis_tz	hip_flexion_r	hip_adduction_r	hip_rotation_r	knee_angle_r	ankle_angle_r	subtalar_angle_r	mtp_angle_r	hip_flexion_l	hip_adduction_l	hip_rotation_l	knee_angle_l	ankle_angle_l	subtalar_angle_l	mtp_angle_l	lumbar_extension	lumbar_bending	lumbar_rotation	arm_flex_r	arm_add_r	arm_rot_r	elbow_flex_r	pro_sup_r	arm_flex_l	arm_add_l	arm_rot_l	elbow_flex_l	pro_sup_l
      0.00000000	     -3.10891871	      0.31053643	      2.66264730	      0.18231039	      0.98030782	     -0.10684109	     13.46543148	      0.97372281	     -0.19857686	     24.58679217	      5.44834443	    -13.82351028	      0.00000000	      6.19146463	      1.51057231	     -0.51796225	     13.90639236	      6.79548021	     -3.53449665	      0.00000000	     -5.25779670	      0.02000402	     -1.92680219	     43.04235479	      0.37827227	     51.23454343	    126.82393066	    108.19948849	     41.76796313	     -2.94478697	     41.00989482	    110.86970112	    100.22847144
      0.01666670	     -4.65077411	      0.62374670	      3.07186138	      0.18658446	      0.97647715	     -0.10705387	     14.26025322	      0.93191087	      0.06046717	     23.76998637	      8.73552333	    -10.43467281	      0.00000000	      7.36951692	      2.15011586	      0.40268303	     13.41716674	      7.16066280	     -2.31124418	      0.00000000	     -2.60346343	     -0.36892842	     -1.81367340	     44.85218752	      0.68673658	     49.54239953	    123.90809042	    107.85071290	     43.68079480	     -2.99150538	     37.04950808	    108.53920088	     99.47863940
      0.03333330	     -5.32679236	      0.95907991	      2.98997791	      0.18880027	      0.97713457	     -0.10487764	     14.36734842	      0.68297743	     -0.93712315	     22.93259363	      9.69744580	    -10.48179874	      0.00000000	      8.13036711	      2.37488144	     -0.36342336	     13.63504380	      7.08620723	     -2.01863817	      0.00000000	     -1.62451241	     -1.06974654	     -1.74247302	     46.05016780	      1.75536403	     50.39061159	    122.88578923	    107.79144738	     46.01394250	     -2.12700519	     35.17694428	    107.49590160	     98.77077839
      0.05000000	     -5.48944380	      1.10775669	      3.31016576	      0.18894077	      0.97668720	     -0.10323123	     14.19653300	      0.60489658	     -1.72009907	     22.48477847	     10.85087141	     -9.66225686	      0.00000000	      8.14468829	      2.49719580	     -0.02583851	     13.38501717	      7.17346474	     -2.22594980	      0.00000000	     -0.95017455	     -1.43379510	     -3.05906236	     46.84167328	      4.47877311	     54.14245371	    123.01018000	    107.02148445	     47.62759438	     -0.76768185	     37.33503997	    111.48990027	     92.31478276
      0.06666670	     -6.06123074	      1.21227339	      3.74360549	      0.18852273	      0.98149815	     -0.10148642	     14.32650989	      0.60419874	     -2.10785753	     21.41542164	     10.65715589	    -10.04296681	      0.00000000	      8.76518906	      2.53251190	      0.04479364	     13.37701040	      6.93402286	     -2.17450586	      0.00000000	     -0.09929043	     -1.75813076	     -2.80896137	     46.61836579	      5.83426531	     55.18080700	    122.33368720	    106.83951575	     49.14475217	      2.19460413	     41.25602570	    113.58185031	     91.53467528
      0.08333330	     -6.09333633	      1.30786251	      3.94900690	      0.18992164	      0.97571017	     -0.10064729	     14.00577365	      0.59725017	     -2.72932837	     20.81936470	     10.76864893	    -10.47408112	      0.00000000	      9.04104012	      2.54819609	      0.29669533	     13.80621233	      7.25625226	     -2.16856736	      0.00000000	      0.24140012	     -1.79653032	     -2.57370437	     46.77530341	      7.38497534	     55.70878330	    121.64717641	    106.64534814	     50.67943728	      4.56787692	     44.18923724	    115.30773179	     90.97705357
      0.10000000	     -5.99953310	      1.50179840	      4.10656186	      0.19097622	      0.97714798	     -0.09729021	     13.27515314	      0.61394694	     -2.83564706	     19.76394489	     10.57099043	    -10.72425618	      0.00000000	      8.92722220	      2.57461668	      0.23448823	     13.82073238	      6.92388203	     -2.41059274	      0.00000000	      0.45241638	     -2.57795163	     -1.94614129	     45.90286555	      7.57483121	     55.34449399	    123.33881055	    104.04470245	     52.64027151	      6.19856603	     47.39857068	    114.35214646	     82.90768171
      0.11666670	     -6.13844411	      1.48526218	      4.32271377	      0.19322297	      0.97613601	     -0.09595120	     12.87913349	      0.72911314	     -3.29838024	     18.85203257	     10.54514680	    -10.77205167	      0.00000000	      9.28068029	      2.48280502	      0.41714331	     14.35162587	      7.40639470	     -2.49331717	      0.00000000	      1.02494263	     -2.46184479	     -2.44880071	     46.11667762	      8.86134450	     56.35636716	    122.99199437	    103.86759911	     53.53967704	      7.72374634	     49.58470789	    116.04264454	     82.35003080
      0.13333330	     -6.12299304	      1.50730755	      4.40235752	      0.19115546	      0.97885195	     -0.09122979	     12.33876959	      0.95523112	     -3.33114139	     17.86398881	     10.42863747	    -10.75973674	      0.00000000	      9.49438408	      2.30171466	      0.48125733	     14.67508871	      7.37274331	     -2.60092280	      0.00000000	      1.20844443	     -2.45874803	     -2.63087557	     45.50999255	      9.92919245	     57.07033252	    123.26671622	    103.79119191	     53.93685838	      8.35257267	     50.21915823	    116.17863668	     82.12165247
      0.15000000	     -6.06532424	      1.45465163	      4.48981795	      0.19463054	      0.97293539	     -0.08899839	     11.66405476	      1.24415709	     -3.48253021	     16.86508704	     10.21759023	    -11.00507038	      0.00000000	      9.70402901	      2.09291901	      0.99680936	     15.29767724	      7.85413385	     -2.93017421	      0.00000000	      1.35833439	     -2.28821291	     -2.46839312	     45.42724213	     10.22868486	     57.96362330	    124.08480097	    103.51304253	     54.58538485	      9.64346577	     52.63194032	    117.63789384	     81.58310070
